<?xml version="1.0" encoding="UTF-8" standalone="no"?>
<!-- Created with Inkscape (http://www.inkscape.org/) -->

<svg
   xmlns:dc="http://purl.org/dc/elements/1.1/"
   xmlns:cc="http://creativecommons.org/ns#"
   xmlns:rdf="http://www.w3.org/1999/02/22-rdf-syntax-ns#"
   xmlns:svg="http://www.w3.org/2000/svg"
   xmlns="http://www.w3.org/2000/svg"
   xmlns:sodipodi="http://sodipodi.sourceforge.net/DTD/sodipodi-0.dtd"
   xmlns:inkscape="http://www.inkscape.org/namespaces/inkscape"
   width="48pt"
   height="48pt"
   viewBox="0 0 16.933334 16.933333"
   version="1.1"
   id="svg979"
   inkscape:version="0.92.4 (5da689c313, 2019-01-14)"
   sodipodi:docname="13 - Notebook.svg"
   inkscape:export-filename="E:\TR Design Studio Creative\Project Design\TR Creative Design\Icon Design\Project Hiring\Icon Icons\003 - Business And Finance\Send\2 - Solid\13 - Notebook.png"
   inkscape:export-xdpi="768"
   inkscape:export-ydpi="768">
  <defs
     id="defs973">
    <pattern
       y="0"
       x="0"
       height="6"
       width="6"
       patternUnits="userSpaceOnUse"
       id="EMFhbasepattern" />
  </defs>
  <sodipodi:namedview
     id="base"
     pagecolor="#ffffff"
     bordercolor="#666666"
     borderopacity="1.0"
     inkscape:pageopacity="0.0"
     inkscape:pageshadow="2"
     inkscape:zoom="8.546875"
     inkscape:cx="32"
     inkscape:cy="32"
     inkscape:document-units="pt"
     inkscape:current-layer="layer1"
     showgrid="false"
     units="pt"
     inkscape:window-width="1366"
     inkscape:window-height="716"
     inkscape:window-x="-8"
     inkscape:window-y="-8"
     inkscape:window-maximized="1"
     inkscape:snap-bbox="true"
     inkscape:bbox-nodes="true"
     inkscape:snap-nodes="false"
     showguides="false">
    <inkscape:grid
       type="xygrid"
       id="grid1526" />
    <sodipodi:guide
       position="0.97013909,15.963209"
       orientation="56.666615,0"
       id="guide1528"
       inkscape:locked="false" />
    <sodipodi:guide
       position="0.97013909,0.97016731"
       orientation="0,56.666667"
       id="guide1530"
       inkscape:locked="false" />
    <sodipodi:guide
       position="15.963195,0.97016731"
       orientation="-56.666615,0"
       id="guide1532"
       inkscape:locked="false" />
    <sodipodi:guide
       position="15.963195,15.963209"
       orientation="0,-56.666667"
       id="guide1534"
       inkscape:locked="false" />
  </sodipodi:namedview>
  <metadata
     id="metadata976">
    <rdf:RDF>
      <cc:Work
         rdf:about="">
        <dc:format>image/svg+xml</dc:format>
        <dc:type
           rdf:resource="http://purl.org/dc/dcmitype/StillImage" />
        <dc:title></dc:title>
      </cc:Work>
    </rdf:RDF>
  </metadata>
  <g
     inkscape:label="Layer 1"
     inkscape:groupmode="layer"
     id="layer1"
     transform="translate(0,-280.06668)">
    <path
       id="path1142"
       style="color:#000000;font-style:normal;font-variant:normal;font-weight:normal;font-stretch:normal;font-size:medium;line-height:normal;font-family:sans-serif;font-variant-ligatures:normal;font-variant-position:normal;font-variant-caps:normal;font-variant-numeric:normal;font-variant-alternates:normal;font-feature-settings:normal;text-indent:0;text-align:start;text-decoration:none;text-decoration-line:none;text-decoration-style:solid;text-decoration-color:#000000;letter-spacing:normal;word-spacing:normal;text-transform:none;writing-mode:lr-tb;direction:ltr;text-orientation:mixed;dominant-baseline:auto;baseline-shift:baseline;text-anchor:start;white-space:normal;shape-padding:0;clip-rule:nonzero;display:inline;overflow:visible;visibility:visible;isolation:auto;mix-blend-mode:normal;color-interpolation:sRGB;color-interpolation-filters:linearRGB;solid-color:#000000;solid-opacity:1;vector-effect:none;fill:#000000;fill-opacity:1;fill-rule:nonzero;stroke:none;stroke-width:0.529167;stroke-linecap:round;stroke-linejoin:round;stroke-miterlimit:4;stroke-dasharray:none;stroke-dashoffset:0;stroke-opacity:1;color-rendering:auto;image-rendering:auto;shape-rendering:auto;text-rendering:auto;enable-background:accumulate"
       d="m 4.3770664,281.03687 c -0.3975071,0 -0.7559873,0.10405 -1.0061854,0.3547 -0.250197,0.25068 -0.3558702,0.60866 -0.357355,1.00552 -3.8e-6,8.9e-4 -3.8e-6,0.001 0,0.003 v 0.33939 h 0.6814381 c 0.5603823,0 1.0241521,0.46378 1.0241521,1.02416 0,0.56037 -0.4637775,1.02081 -1.0241521,1.02081 H 3.013526 v 2.04498 h 0.6814381 c 0.5603823,0 1.0241521,0.46045 1.0241521,1.02083 0,0.56038 -0.4637698,1.02416 -1.0241521,1.02416 H 3.013526 v 1.70292 h 0.6814381 c 0.5603823,0 1.0241521,0.46044 1.0241521,1.02082 0,0.56038 -0.4637698,1.0235 -1.0241521,1.0235 H 3.013526 v 1.01749 c 0.3253142,-0.21341 0.7705765,-0.3278 1.3582168,-0.33606 v 6.8e-4 c 0.0018,-10e-6 0.00361,-10e-6 0.00528,0 h 9.8821722 v -10.90368 c 0,-0.39751 -0.106691,-0.7575 -0.357355,-1.00818 -0.250667,-0.25066 -0.60868,-0.3547 -1.006186,-0.3547 z m 1.3628746,1.36288 h 1.3635404 c 0.1871275,7.5e-4 0.3386397,0.15226 0.3393879,0.33939 v 9.54012 c 7.155e-4,0.18817 -0.1512212,0.3413 -0.3393879,0.34206 H 5.739941 c -0.1892062,7.1e-4 -0.342771,-0.15285 -0.3420499,-0.34206 v -9.54012 c 0,-0.16339 0.155266,-0.33939 0.3420499,-0.33939 z m 2.7264161,0 h 3.4058549 c 0.188167,-7.2e-4 0.341298,0.15123 0.34205,0.33939 v 1.70558 c -7.5e-4,0.18817 -0.153883,0.34011 -0.34205,0.33939 H 8.4663571 c -0.2325082,0 -0.3419829,-0.18989 -0.3419829,-0.33939 v -1.70558 c 0,-0.21835 0.1797026,-0.33939 0.3419829,-0.33939 z m -2.387028,0.68143 v 8.8587 h 0.6821037 v -8.8587 z m 2.7264162,0 v 1.0215 h 2.7270807 v -1.0215 z m -5.7922193,0.34006 c -0.194652,0 -0.339388,0.1474 -0.339388,0.34206 0,0.19465 0.1447283,0.33938 0.339388,0.33938 h 0.6814381 c 0.1946596,0 0.3427142,-0.14473 0.3427142,-0.33938 0,-0.19466 -0.1480622,-0.34206 -0.3427142,-0.34206 z m 7.495146,2.04498 h 1.36354 c 0.189215,-7.4e-4 0.34279,0.15283 0.34205,0.34204 -7.5e-4,0.18818 -0.153874,0.34014 -0.34205,0.33939 h -1.36354 c -0.187135,-7.2e-4 -0.338658,-0.15225 -0.339386,-0.33939 -7.5e-4,-0.18816 0.151213,-0.3413 0.339386,-0.34204 z m -2.0423149,1.36287 h 3.4058549 c 0.188176,-7.4e-4 0.341317,0.15121 0.34205,0.33939 7.49e-4,0.18921 -0.152835,0.34279 -0.34205,0.34206 H 8.4663571 c -0.1892151,7.4e-4 -0.3427903,-0.15285 -0.3420496,-0.34206 7.496e-4,-0.18818 0.153875,-0.34012 0.3420496,-0.33939 z m -5.4528311,0.68145 c -0.194652,0 -0.339388,0.14475 -0.339388,0.33938 0,0.19466 0.144736,0.34205 0.339388,0.34205 h 0.6814381 c 0.1946507,0 0.3427142,-0.14739 0.3427142,-0.34205 0,-0.19463 -0.1480635,-0.33938 -0.3427142,-0.33938 z m 5.4528311,0.68143 h 3.4058549 c 0.188435,-7.5e-4 0.341684,0.15162 0.34205,0.34005 7.49e-4,0.18921 -0.152835,0.34279 -0.34205,0.34206 H 8.4663571 c -0.1892151,7.4e-4 -0.3427903,-0.15285 -0.3420496,-0.34206 3.747e-4,-0.18843 0.1536164,-0.34079 0.3420496,-0.34005 z m -5.4528311,3.06646 c -0.194652,0 -0.339388,0.14475 -0.339388,0.33939 0,0.19465 0.144736,0.34206 0.339388,0.34206 h 0.6814381 c 0.1946507,0 0.3427142,-0.14741 0.3427142,-0.34206 0,-0.19464 -0.1480635,-0.33939 -0.3427142,-0.33939 z m 8.176584,0.68145 h 0.682102 c 0.188176,-7.5e-4 0.341317,0.1512 0.34205,0.33938 7.49e-4,0.18921 -0.152835,0.34279 -0.34205,0.34206 H 11.19011 c -0.188175,-7.5e-4 -0.340125,-0.15388 -0.339388,-0.34206 7.15e-4,-0.18713 0.152253,-0.33865 0.339388,-0.33938 z m -6.8130436,2.04498 c -0.6501249,0.006 -1.355555,0.27412 -1.355555,1.02081 0,0.8355 0.6959021,1.02416 1.355555,1.02416 3.0666826,0 6.1333666,0 9.2000486,0 v -1.02416 c -7.5e-4,-0.18816 -0.153884,-0.3401 -0.342051,-0.33938 v -0.68143 z m 0.3420498,0.68143 h 3.065803 c 0.1871354,7.4e-4 0.3386581,0.15225 0.3393883,0.33938 7.39e-4,0.18818 -0.1512124,0.34132 -0.3393883,0.34206 h -3.065803 c -0.1892164,7.5e-4 -0.3427929,-0.15285 -0.3420498,-0.34206 7.326e-4,-0.18818 0.1538752,-0.34012 0.3420498,-0.33938 z m 4.4293434,0 h 1.3602124 c 0.188175,-7.5e-4 0.341316,0.1512 0.34205,0.33938 7.49e-4,0.18921 -0.152834,0.34281 -0.34205,0.34206 H 9.1484596 c -0.1894753,10e-4 -0.3434598,-0.15257 -0.3427143,-0.34206 7.496e-4,-0.18843 0.1542809,-0.34049 0.3427143,-0.33938 z"
       inkscape:connector-curvature="0"
       sodipodi:nodetypes="cccccsssccsssccsssccccccscccccccccccccccccccccccccccccccsssssssccccccccccccccssssssscccccccsssssssccccccccccccccccccccccccccccc" />
  </g>
</svg>
